<?xml version="1.0" encoding="UTF-8"?><svg id="Layer_2" xmlns="http://www.w3.org/2000/svg" viewBox="0 0 864 184"><defs><style>.cls-1{fill:#000;}</style></defs><g id="Layer_2-2"><path class="cls-1" d="m201,176V19c-12-1.67-24-3.33-36-5v162h-11V13c-33-3.67-65-7.33-98-11,1.33,58.67.67,114.33,2,173h-9c-1.67-59.33-.33-115.67-2-175C31.33,6,15.67,12,0,18c1,55.33,2,110.67,3,166h861V17c-14.67-5.67-29.33-11.33-44-17-1.33,59.33-.67,117.67-2,177l-9.5-.5c0-36,2-112,1.5-173.5l-90,9v162.5h-8V13c-14.33,2-28.67,4-43,6v155h-8V20c-17.67,2.67-35.33,5.34-53,8v147l-8,1V29c-32.67-7.33-65.33-14.67-98-22v168h-10V6h-113v167.01h-10V6c-33,7.67-62,15.34-95,23v145h-12V29c-17.33-3-32.67-6-50-9v155.5"/></g></svg>